<?xml version="1.0" standalone="no"?>
<!DOCTYPE svg PUBLIC "-//W3C//DTD SVG 20010904//EN"
 "http://www.w3.org/TR/2001/REC-SVG-20010904/DTD/svg10.dtd">
<svg version="1.0" xmlns="http://www.w3.org/2000/svg"
 width="183.000000pt" height="202.000000pt" viewBox="0 0 183.000000 202.000000"
 preserveAspectRatio="xMidYMid meet">

<g transform="translate(0.000000,202.000000) scale(0.100000,-0.100000)"
fill="#000000" stroke="none">
<path d="M76 1996 c-80 -48 -75 10 -76 -906 0 -757 1 -817 18 -849 9 -19 30
-44 45 -55 28 -21 40 -21 569 -24 436 -2 539 0 536 10 -2 7 -36 35 -76 62 -56
39 -75 58 -89 93 l-18 43 -430 0 c-322 0 -434 3 -443 12 -17 17 -17 1399 0
1416 17 17 1289 17 1306 0 9 -9 12 -148 12 -565 l0 -553 31 0 c17 0 39 5 50
10 18 10 19 28 19 607 0 576 -1 598 -20 638 -13 26 -34 49 -59 63 -39 22 -39
22 -687 22 l-649 0 -39 -24z m724 -1701 c15 -19 6 -61 -16 -69 -42 -16 -82 35
-54 69 16 19 54 19 70 0z"/>
<path d="M443 1472 c-7 -4 -23 -37 -37 -72 -13 -36 -58 -152 -100 -258 -42
-106 -76 -200 -76 -208 0 -12 12 -14 56 -12 l57 3 20 55 c12 30 26 58 31 62 6
4 55 8 108 8 107 0 102 3 133 -75 l20 -50 58 -3 c42 -2 57 0 57 10 0 16 -200
518 -213 536 -10 13 -95 16 -114 4z m92 -235 c36 -97 36 -97 -40 -97 -42 0
-65 4 -65 11 0 12 47 146 56 161 10 15 21 -3 49 -75z"/>
<path d="M842 1468 c-9 -9 -12 -81 -12 -264 0 -139 3 -259 6 -268 5 -14 28
-16 148 -16 128 0 146 2 193 24 55 26 91 70 113 140 19 60 9 221 -18 272 -31
60 -82 100 -142 113 -70 15 -273 14 -288 -1z m272 -102 c48 -20 67 -68 68
-170 1 -144 -31 -179 -158 -174 l-69 3 -3 178 -2 177 65 0 c36 0 80 -6 99 -14z"/>
<path d="M1183 852 c-24 -4 -53 -37 -53 -61 0 -9 20 -63 44 -121 49 -115 117
-300 111 -300 -2 0 -27 16 -56 35 -84 55 -141 56 -155 1 -12 -49 0 -69 66
-114 82 -55 157 -128 222 -214 49 -67 50 -68 97 -68 101 0 300 69 346 120 18
20 18 24 1 132 -20 125 -44 206 -84 288 -33 67 -67 88 -109 67 -16 -8 -44 -12
-64 -10 -20 3 -46 0 -57 -6 -15 -8 -28 -8 -46 0 -21 10 -30 9 -51 -5 -15 -10
-28 -16 -30 -14 -1 2 -23 53 -49 113 -64 153 -75 166 -133 157z"/>
</g>
</svg>
