<?xml version="1.0" standalone="no"?>
<!DOCTYPE svg PUBLIC "-//W3C//DTD SVG 20010904//EN"
 "http://www.w3.org/TR/2001/REC-SVG-20010904/DTD/svg10.dtd">
<svg version="1.0" xmlns="http://www.w3.org/2000/svg"
 width="142.000000pt" height="141.000000pt" viewBox="0 0 142.000000 141.000000"
 preserveAspectRatio="xMidYMid meet">

<g transform="translate(0.000000,141.000000) scale(0.100000,-0.100000)"
fill="#000000" stroke="none">
<path d="M735 1385 l-25 -24 0 -231 0 -231 25 -24 c20 -21 34 -25 81 -25 l57
0 -7 -58 c-4 -40 -3 -63 6 -75 17 -22 32 -13 127 71 l72 62 148 0 c132 0 152
2 172 19 l24 19 0 242 0 242 -24 19 c-22 18 -43 19 -328 19 l-304 0 -24 -25z
m178 -206 c26 -32 22 -83 -9 -108 -15 -12 -37 -21 -49 -21 -70 0 -103 97 -48
140 33 26 79 21 106 -11z m202 6 c35 -34 34 -86 -1 -114 -79 -62 -170 43 -99
114 13 14 36 25 50 25 14 0 37 -11 50 -25z m210 0 c35 -34 34 -86 -1 -114 -79
-62 -170 43 -99 114 13 14 36 25 50 25 14 0 37 -11 50 -25z"/>
<path d="M189 1226 c-72 -26 -125 -83 -160 -174 -55 -145 -5 -393 118 -579 44
-68 197 -229 253 -268 38 -26 41 -27 65 -11 43 28 32 52 -65 143 -49 46 -110
112 -136 146 -56 74 -118 199 -139 282 -18 70 -20 198 -3 246 26 75 77 129
124 129 25 0 100 -78 129 -133 37 -70 30 -93 -51 -177 -40 -42 -64 -75 -64
-89 0 -33 97 -177 175 -259 74 -79 185 -167 258 -206 44 -23 51 -24 75 -12 15
8 47 36 72 61 25 26 60 54 78 61 29 13 37 13 76 -5 24 -10 67 -41 95 -68 82
-79 69 -122 -54 -180 -84 -39 -186 -39 -306 1 -47 16 -93 26 -102 23 -9 -3
-19 -18 -23 -33 -10 -37 14 -55 123 -90 116 -37 249 -39 334 -6 120 48 189
142 174 239 -6 42 -15 56 -69 110 -64 62 -134 105 -193 117 -56 13 -111 -11
-174 -73 l-58 -58 -56 37 c-30 20 -84 62 -119 93 -67 59 -186 208 -186 232 0
8 22 39 49 70 84 96 90 179 20 284 -51 77 -118 137 -165 150 -48 13 -50 13
-95 -3z"/>
</g>
</svg>
