<?xml version="1.0" standalone="no"?>
<!DOCTYPE svg PUBLIC "-//W3C//DTD SVG 20010904//EN"
 "http://www.w3.org/TR/2001/REC-SVG-20010904/DTD/svg10.dtd">
<svg version="1.0" xmlns="http://www.w3.org/2000/svg"
 width="161.000000pt" height="145.000000pt" viewBox="0 0 161.000000 145.000000"
 preserveAspectRatio="xMidYMid meet">

<g transform="translate(0.000000,145.000000) scale(0.100000,-0.100000)"
fill="#000000" stroke="none">
<path d="M900 1435 c-30 -9 -75 -25 -100 -37 -63 -31 -152 -118 -185 -183
l-27 -55 -75 0 c-79 0 -113 -11 -113 -36 0 -9 41 -147 91 -307 61 -193 98
-298 111 -310 19 -16 53 -17 408 -17 314 0 391 3 402 14 8 7 56 152 108 321
111 363 115 335 -46 335 l-103 0 -37 71 c-73 139 -174 209 -308 216 -43 2 -93
-3 -126 -12z m120 -190 c28 -15 70 -60 70 -76 0 -5 -58 -9 -130 -9 -71 0 -130
2 -130 5 0 20 40 61 75 76 49 23 77 24 115 4z m-208 -160 c-3 -42 0 -65 7 -65
30 0 291 104 291 116 0 11 27 14 129 14 l129 0 16 -45 c15 -45 15 -46 -7 -54
-12 -5 -123 -46 -247 -91 -124 -45 -231 -85 -237 -87 -20 -8 -15 -29 13 -62
68 -81 168 -86 309 -17 39 19 89 54 113 76 24 23 45 40 46 39 2 -2 16 -42 32
-88 l29 -83 -43 -38 c-58 -52 -182 -114 -277 -141 -160 -44 -313 -7 -405 99
-87 99 -148 277 -136 399 10 98 3 93 130 93 l111 0 -3 -65z"/>
<path d="M25 1285 c-28 -27 -31 -52 -11 -81 12 -15 30 -20 97 -24 l83 -5 131
-411 c71 -225 134 -415 138 -422 12 -18 902 -17 937 1 19 9 26 22 28 49 6 69
12 68 -460 68 -388 0 -417 1 -422 18 -54 178 -248 793 -256 810 -9 21 -15 22
-125 22 -110 0 -117 -1 -140 -25z"/>
<path d="M625 306 c-124 -56 -123 -240 2 -292 68 -29 131 -14 187 45 24 25 30
42 34 88 3 48 0 64 -20 92 -12 19 -35 43 -50 54 -34 25 -113 32 -153 13z"/>
<path d="M1135 306 c-96 -43 -124 -171 -55 -250 72 -81 186 -73 254 18 16 20
21 42 21 86 0 63 -16 95 -67 133 -33 25 -113 32 -153 13z"/>
</g>
</svg>
