<?xml version="1.0" standalone="no"?>
<!DOCTYPE svg PUBLIC "-//W3C//DTD SVG 20010904//EN"
 "http://www.w3.org/TR/2001/REC-SVG-20010904/DTD/svg10.dtd">
<svg version="1.0" xmlns="http://www.w3.org/2000/svg"
 width="163.000000pt" height="134.000000pt" viewBox="0 0 163.000000 134.000000"
 preserveAspectRatio="xMidYMid meet">

<g transform="translate(0.000000,134.000000) scale(0.100000,-0.100000)"
fill="#000000" stroke="none">
<path d="M152 1317 c-50 -19 -102 -65 -123 -111 -17 -38 -19 -74 -19 -536 0
-461 2 -498 19 -535 10 -22 31 -52 47 -67 64 -60 45 -58 741 -58 714 0 684 -2
750 73 58 66 58 68 58 587 0 436 -1 479 -18 522 -22 56 -79 110 -136 126 -55
17 -1273 15 -1319 -1z m1289 -153 l30 -15 -23 -18 c-42 -32 -598 -420 -617
-430 -14 -8 -27 -5 -52 12 -67 46 -575 401 -597 418 l-23 18 28 15 c24 13 110
15 626 16 522 0 602 -2 628 -16z m-953 -431 c177 -123 314 -213 327 -213 13 0
155 92 336 219 l314 219 3 -381 c2 -379 2 -382 -19 -399 -20 -17 -65 -18 -635
-18 -601 0 -614 0 -634 20 -19 19 -20 33 -20 401 0 284 3 378 12 373 6 -4 148
-103 316 -221z"/>
</g>
</svg>
